<svg xmlns="http://www.w3.org/2000/svg" version="1.1" xmlns:xlink="http://www.w3.org/1999/xlink" xmlns:svgjs="http://svgjs.dev/svgjs" width="1000" height="1000" viewBox="0 0 1000 1000"><rect width="1000" height="1000" fill="#ffffff"></rect><g transform="matrix(0.7,0,0,0.7,149.57575782993194,379.79792321260663)"><svg viewBox="0 0 396 136" data-background-color="#003366" preserveAspectRatio="xMidYMid meet" height="343" width="1000" xmlns="http://www.w3.org/2000/svg" xmlns:xlink="http://www.w3.org/1999/xlink"><g id="tight-bounds" transform="matrix(1,0,0,1,0.24000014379004142,0.0861438294949437)"><svg viewBox="0 0 395.52 135.82771521637972" height="135.82771521637972" width="395.52"><g><svg viewBox="0 0 395.52 135.82771521637972" height="135.82771521637972" width="395.52"><g><svg viewBox="0 0 395.52 135.82771521637972" height="135.82771521637972" width="395.52"><g id="textblocktransform"><svg viewBox="0 0 395.52 135.82771521637972" height="135.82771521637972" width="395.52" id="textblock"><g><svg viewBox="0 0 395.52 135.82771521637972" height="135.82771521637972" width="395.52"><g transform="matrix(1,0,0,1,0,0)"><svg width="395.52" viewBox="3.1700000762939453 -35.54999923706055 104.93000030517578 36.040000915527344" height="135.82771521637972" data-palette-color="#ffffff"><path d="M20.53-35.55L25.02-35.55 25.02-10.28Q24.98-5.22 22.09-2.37 19.21 0.49 14.06 0.49L14.06 0.49Q8.79 0.49 6.01-2.31 3.22-5.1 3.17-10.28L3.17-10.28 3.17-35.55 7.62-35.55 7.62-10.45Q7.62-6.86 9.14-5.09 10.67-3.32 14.06-3.32L14.06-3.32Q17.48-3.32 19.01-5.09 20.53-6.86 20.53-10.45L20.53-10.45 20.53-35.55ZM33.98-35.55L42.06-6.86 50.19-35.55 55.1-35.55 44.04 0 40.13 0 29.1-35.55 33.98-35.55ZM64.4-35.55L64.4-3.83 78.34-3.83 78.34 0 59.91 0 59.91-35.55 64.4-35.55ZM103.51 0L100.7-9.28 88.69-9.28 85.93 0 81.34 0 92.79-35.55 96.62-35.55 108.1 0 103.51 0ZM94.69-29.3L89.86-13.13 99.55-13.13 94.69-29.3Z" opacity="1" transform="matrix(1,0,0,1,0,0)" fill="#000000" class="wordmark-text-0" data-fill-palette-color="primary" id="text-0"></path></svg></g></svg></g></svg></g></svg></g><g></g></svg></g><defs></defs></svg><rect width="395.52" height="135.82771521637972" fill="none" stroke="none" visibility="hidden"></rect></g></svg></g></svg>